<svg preserveAspectRatio="none" overflow="visible" style="display: block;" width="1512" height="1192" viewBox="0 0 1512 1192" fill="none" xmlns="http://www.w3.org/2000/svg">
<g id="Bg lines" opacity="0.02" clip-path="url(#clip0_0_14)">
<line id="Line 1186" x1="63.982" y1="-2276.95" x2="63.9818" y2="1197.82" stroke="black" stroke-width="1.08893"/>
<line id="Line 1198" x1="1574.88" y1="-2155.53" x2="-67.2257" y2="-2155.53" stroke="black" stroke-width="1.08893"/>
<line id="Line 1199" x1="1574.88" y1="-2035.74" x2="-67.2257" y2="-2035.74" stroke="black" stroke-width="1.08893"/>
<line id="Line 1200" x1="1574.88" y1="-1915.96" x2="-67.2257" y2="-1915.96" stroke="black" stroke-width="1.08893"/>
<line id="Line 1201" x1="1574.88" y1="-1796.18" x2="-67.2257" y2="-1796.18" stroke="black" stroke-width="1.08893"/>
<line id="Line 1202" x1="1574.88" y1="-1676.4" x2="-67.2257" y2="-1676.4" stroke="black" stroke-width="1.08893"/>
<line id="Line 1203" x1="1574.88" y1="-1556.62" x2="-67.2257" y2="-1556.62" stroke="black" stroke-width="1.08893"/>
<line id="Line 1204" x1="1574.88" y1="-1436.84" x2="-67.2257" y2="-1436.84" stroke="black" stroke-width="1.08893"/>
<line id="Line 1205" x1="1574.88" y1="-1317.06" x2="-67.2257" y2="-1317.06" stroke="black" stroke-width="1.08893"/>
<line id="Line 1206" x1="1574.88" y1="-1197.28" x2="-67.2257" y2="-1197.28" stroke="black" stroke-width="1.08893"/>
<line id="Line 1207" x1="1574.88" y1="-1077.49" x2="-67.2257" y2="-1077.49" stroke="black" stroke-width="1.08893"/>
<line id="Line 1208" x1="1574.88" y1="-957.713" x2="-67.2257" y2="-957.713" stroke="black" stroke-width="1.08893"/>
<line id="Line 1209" x1="1574.88" y1="-837.932" x2="-67.2257" y2="-837.932" stroke="black" stroke-width="1.08893"/>
<line id="Line 1210" x1="1574.88" y1="-718.143" x2="-67.2257" y2="-718.143" stroke="black" stroke-width="1.08893"/>
<line id="Line 1211" x1="1574.88" y1="-598.362" x2="-67.2257" y2="-598.362" stroke="black" stroke-width="1.08893"/>
<line id="Line 1212" x1="1574.88" y1="-478.581" x2="-67.2257" y2="-478.581" stroke="black" stroke-width="1.08893"/>
<line id="Line 1213" x1="1574.88" y1="-358.799" x2="-67.2257" y2="-358.799" stroke="black" stroke-width="1.08893"/>
<line id="Line 1214" x1="1574.88" y1="-239.018" x2="-67.2257" y2="-239.018" stroke="black" stroke-width="1.08893"/>
<line id="Line 1215" x1="1574.88" y1="-119.237" x2="-67.2257" y2="-119.237" stroke="black" stroke-width="1.08893"/>
<line id="Line 1216" x1="1574.88" y1="0.544463" x2="-67.2257" y2="0.544463" stroke="black" stroke-width="1.08893"/>
<line id="Line 1217" x1="1574.88" y1="120.326" x2="-67.2257" y2="120.326" stroke="black" stroke-width="1.08893"/>
<line id="Line 1218" x1="1574.88" y1="240.107" x2="-67.2257" y2="240.107" stroke="black" stroke-width="1.08893"/>
<line id="Line 1219" x1="1574.88" y1="359.888" x2="-67.2257" y2="359.888" stroke="black" stroke-width="1.08893"/>
<line id="Line 1220" x1="1574.88" y1="479.669" x2="-67.2257" y2="479.669" stroke="black" stroke-width="1.08893"/>
<line id="Line 1221" x1="1574.88" y1="599.451" x2="-67.2257" y2="599.451" stroke="black" stroke-width="1.08893"/>
<line id="Line 1222" x1="1574.88" y1="719.232" x2="-67.2257" y2="719.232" stroke="black" stroke-width="1.08893"/>
<line id="Line 1223" x1="1574.88" y1="839.021" x2="-67.2257" y2="839.021" stroke="black" stroke-width="1.08893"/>
<line id="Line 1224" x1="1574.88" y1="958.802" x2="-67.2257" y2="958.802" stroke="black" stroke-width="1.08893"/>
<line id="Line 1225" x1="1574.88" y1="1078.58" x2="-67.2257" y2="1078.58" stroke="black" stroke-width="1.08893"/>
<line id="Line 1226" x1="1574.88" y1="1198.36" x2="-67.2257" y2="1198.36" stroke="black" stroke-width="1.08893"/>
<line id="Line 1187" x1="200.107" y1="-2276.95" x2="200.107" y2="1197.82" stroke="black" stroke-width="1.08893"/>
<line id="Line 1188" x1="336.216" y1="-2276.95" x2="336.216" y2="1197.82" stroke="black" stroke-width="1.08893"/>
<line id="Line 1189" x1="472.334" y1="-2276.95" x2="472.333" y2="1197.82" stroke="black" stroke-width="1.08893"/>
<line id="Line 1190" x1="608.451" y1="-2276.95" x2="608.451" y2="1197.82" stroke="black" stroke-width="1.08893"/>
<line id="Line 1191" x1="744.568" y1="-2276.95" x2="744.568" y2="1197.82" stroke="black" stroke-width="1.08893"/>
<line id="Line 1192" x1="880.685" y1="-2276.95" x2="880.685" y2="1197.82" stroke="black" stroke-width="1.08893"/>
<line id="Line 1193" x1="1016.79" y1="-2276.95" x2="1016.79" y2="1197.82" stroke="black" stroke-width="1.08893"/>
<line id="Line 1194" x1="1152.91" y1="-2276.95" x2="1152.91" y2="1197.82" stroke="black" stroke-width="1.08893"/>
<line id="Line 1195" x1="1289.03" y1="-2276.95" x2="1289.03" y2="1197.82" stroke="black" stroke-width="1.08893"/>
<line id="Line 1196" x1="1425.15" y1="-2276.95" x2="1425.15" y2="1197.82" stroke="black" stroke-width="1.08893"/>
<line id="Line 1197" x1="1561.26" y1="-2276.95" x2="1561.26" y2="1197.82" stroke="black" stroke-width="1.08893"/>
</g>
<defs>
<clipPath id="clip0_0_14">
<rect width="1512" height="1192" fill="white"/>
</clipPath>
</defs>
</svg>
