<svg width="1512" height="800" viewBox="0 0 1512 800" fill="none" xmlns="http://www.w3.org/2000/svg">
<g opacity="0.05" clip-path="url(#clip0_3408_3574)">
<line x1="105.5" y1="1.60271e-08" x2="105.5" y2="800" stroke="white"/>
<line x1="43.5" y1="1.60271e-08" x2="43.5" y2="800" stroke="white"/>
<line x1="167.5" y1="1.60271e-08" x2="167.5" y2="800" stroke="white"/>
<line x1="291.5" y1="1.60271e-08" x2="291.5" y2="800" stroke="white"/>
<line x1="415.5" y1="1.60271e-08" x2="415.5" y2="800" stroke="white"/>
<line x1="539.5" y1="1.60271e-08" x2="539.5" y2="800" stroke="white"/>
<line x1="663.5" y1="1.60271e-08" x2="663.5" y2="800" stroke="white"/>
<line x1="787.5" y1="1.60271e-08" x2="787.5" y2="800" stroke="white"/>
<line x1="911.5" y1="1.60271e-08" x2="911.5" y2="800" stroke="white"/>
<line x1="1035.5" y1="1.60271e-08" x2="1035.5" y2="800" stroke="white"/>
<line x1="1159.5" y1="1.60271e-08" x2="1159.5" y2="800" stroke="white"/>
<line x1="1283.5" y1="1.60271e-08" x2="1283.5" y2="800" stroke="white"/>
<line x1="1407.5" y1="1.60271e-08" x2="1407.5" y2="800" stroke="white"/>
<line x1="1508" y1="60.5" y2="60.5" stroke="white"/>
<line x1="1508" y1="60.5" y2="60.5" stroke="white"/>
<line x1="1508" y1="120.5" y2="120.5" stroke="white"/>
<line x1="1508" y1="180.5" y2="180.5" stroke="white"/>
<line x1="1508" y1="240.5" y2="240.5" stroke="white"/>
<line x1="1508" y1="300.5" y2="300.5" stroke="white"/>
<line x1="1508" y1="360.5" y2="360.5" stroke="white"/>
<line x1="1508" y1="420.5" y2="420.5" stroke="white"/>
<line x1="1508" y1="480.5" y2="480.5" stroke="white"/>
<line x1="1508" y1="540.5" y2="540.5" stroke="white"/>
<line x1="1508" y1="600.5" y2="600.5" stroke="white"/>
<line x1="1508" y1="660.5" y2="660.5" stroke="white"/>
<line x1="1508" y1="720.5" y2="720.5" stroke="white"/>
<line x1="1508" y1="780.5" y2="780.5" stroke="white"/>
<line x1="229.5" y1="1.60271e-08" x2="229.5" y2="800" stroke="white"/>
<line x1="353.5" y1="1.60271e-08" x2="353.5" y2="800" stroke="white"/>
<line x1="477.5" y1="1.60271e-08" x2="477.5" y2="800" stroke="white"/>
<line x1="601.5" y1="1.60271e-08" x2="601.5" y2="800" stroke="white"/>
<line x1="725.5" y1="1.60271e-08" x2="725.5" y2="800" stroke="white"/>
<line x1="849.5" y1="1.60271e-08" x2="849.5" y2="800" stroke="white"/>
<line x1="973.5" y1="1.60271e-08" x2="973.5" y2="800" stroke="white"/>
<line x1="1097.5" y1="1.60271e-08" x2="1097.5" y2="800" stroke="white"/>
<line x1="1221.5" y1="1.60271e-08" x2="1221.5" y2="800" stroke="white"/>
<line x1="1345.5" y1="1.60271e-08" x2="1345.5" y2="800" stroke="white"/>
<line x1="1469.5" y1="1.60271e-08" x2="1469.5" y2="800" stroke="white"/>
</g>
<defs>
<clipPath id="clip0_3408_3574">
<rect width="1512" height="800" fill="white"/>
</clipPath>
</defs>
</svg>
